<svg width="289" height="248" viewBox="0 0 289 248" fill="none" xmlns="http://www.w3.org/2000/svg">
<g clip-path="url(#clip0_3_34)">
<path d="M140.899 182.527C147.779 184.667 152.248 189.942 150.882 194.308C149.515 198.674 142.831 200.477 135.949 198.335C133.188 197.517 130.664 196.052 128.588 194.061L99.5533 184.626L104.284 171.133L132.405 181.867C135.248 181.407 138.161 181.634 140.899 182.527Z" fill="#FFB6B6"/>
<path d="M78.6995 83.5243C71.7765 82.7066 65.402 87.3727 64.1123 94.2049C59.5122 118.574 49.7421 171.271 51.0287 172.554C52.7037 174.224 115.239 192.598 115.239 192.598L122.497 177.008L81.1794 156.963L90.2409 98.6785C91.3913 91.2792 86.1558 84.405 78.6995 83.5243Z" fill="#E6E6E6"/>
<path d="M154.038 207.875C147.326 210.49 140.531 209.155 138.864 204.895C137.196 200.634 141.285 195.062 148.001 192.447C150.669 191.366 153.558 190.938 156.426 191.199L185.009 180.478L189.767 193.961L161.085 203.098C159.152 205.229 156.736 206.867 154.038 207.875Z" fill="#A0616A"/>
<path d="M195.257 92.1504C202.109 90.8706 208.784 95.099 210.531 101.829C216.763 125.835 230.062 177.758 228.865 179.124C227.306 180.903 166.151 203.427 166.151 203.427L157.858 188.358L197.732 165.59L184.763 108.044C183.117 100.738 187.877 93.5288 195.257 92.1504Z" fill="#E6E6E6"/>
<path d="M73.7954 87.0249L77.2009 65.7996L54.2139 56.4604L50.8084 88.7229L73.7954 87.0249Z" fill="#FFB6B6"/>
<path d="M208.05 90.3657L204.644 69.1404L227.631 59.8012L231.037 92.0637L208.05 90.3657Z" fill="#A0616A"/>
<path d="M67.9864 72.6227C80.9326 72.6227 91.4276 62.1568 91.4276 49.2464C91.4276 36.3361 80.9326 25.8701 67.9864 25.8701C55.0401 25.8701 44.5451 36.3361 44.5451 49.2464C44.5451 62.1568 55.0401 72.6227 67.9864 72.6227Z" fill="#FFB6B6"/>
<path d="M66.1156 17.8186C66.7939 18.2135 67.7024 17.6161 67.9199 16.8635C68.1374 16.1109 67.8841 15.3118 67.6328 14.5698L66.368 10.834C65.471 8.18458 64.519 5.44255 62.5763 3.42597C59.6441 0.382272 54.9842 -0.392033 50.7893 0.168924C45.4023 0.889299 40.0871 3.79825 37.5823 8.60857C35.0775 13.4189 36.1439 20.131 40.6699 23.1322C34.2193 30.5051 31.9707 38.7221 32.3258 48.5004C32.6808 58.2787 43.3664 67.2779 50.3348 74.1664C51.891 73.2257 53.3057 68.8171 52.45 67.2155C51.5942 65.614 52.8203 63.7585 51.7605 62.2833C50.7007 60.8081 49.814 63.1571 50.8854 61.6902C51.5616 60.7647 48.9227 58.6353 49.9277 58.0813C54.7887 55.4018 56.4054 49.3596 59.4584 44.7326C63.1409 39.1516 69.4435 35.3721 76.1132 34.7451C79.7874 34.3997 83.6681 35.0253 86.6797 37.1524C89.6912 39.2795 91.6409 43.0807 90.9426 46.6944C92.7512 44.8631 93.6515 42.1793 93.3119 39.6313C92.9723 37.0834 91.4004 34.7273 89.1749 33.4306C90.5281 28.9681 89.3688 23.8349 86.228 20.3816C83.0872 16.9283 70.3463 17.5165 65.7609 18.4253" fill="#2F2E41"/>
<path d="M65.4035 34.8806C59.3303 35.5343 54.9453 40.7805 51.2425 45.6253C49.1084 48.4177 46.8728 51.5015 46.9264 55.0121C46.9806 58.5614 49.3602 61.6057 50.4975 64.9694C52.3565 70.4675 50.5447 77.0089 46.1196 80.7761C50.4921 81.6035 55.2189 78.3341 55.9737 73.9602C56.8524 68.8685 52.9819 63.9542 53.4403 58.8079C53.8442 54.2739 57.427 50.7845 60.473 47.3945C63.519 44.0044 66.3797 39.5059 64.9784 35.1739" fill="#2F2E41"/>
<path d="M76.451 83.4657L49.912 76.2274L22.553 87.3634L10.8278 179.792L77.8293 182.019V167.111C77.8293 167.111 89.5546 152.509 87.3212 131.35L85.0878 110.192L76.451 83.4657Z" fill="#E6E6E6"/>
<path d="M88.7171 121.05L36.2325 118.266L21.9947 158.634C21.9947 158.634 4.40679 182.854 1.61505 200.672C-1.17668 218.49 0.498358 243.546 0.498358 243.546H84.5229L77.8293 167.111C77.8293 167.111 93.4564 133.299 91.6451 127.453C89.8338 121.607 88.7171 121.05 88.7171 121.05Z" fill="#3F3D56"/>
<path d="M48.5162 76.5058H35.6742V123.834H48.5162V76.5058Z" fill="#3F3D56"/>
<path d="M88.1587 87.085H75.3168V126.061H88.1587V87.085Z" fill="#3F3D56"/>
<path d="M204.277 87.9201L230.816 80.6818L258.175 91.8178L269.901 184.246L202.899 186.474V171.565C202.899 171.565 196.045 156.323 202.62 136.083C209.041 116.317 195.64 114.647 195.64 114.647L204.277 87.9201Z" fill="#E6E6E6"/>
<path d="M192.011 125.504L244.496 122.72L258.734 163.088C258.734 163.088 267.388 190.65 270.18 208.467C272.971 226.285 280.23 248 280.23 248H196.205L193.686 174.502L192.011 125.504Z" fill="#3F3D56"/>
<path d="M245.054 80.9601H232.212V128.288H245.054V80.9601Z" fill="#3F3D56"/>
<path d="M205.411 91.5394H192.57V130.515H205.411V91.5394Z" fill="#3F3D56"/>
<path d="M213.241 75.8714C229.456 75.8714 242.6 62.7632 242.6 46.5934C242.6 30.4236 229.456 17.3154 213.241 17.3154C197.026 17.3154 183.882 30.4236 183.882 46.5934C183.882 62.7632 197.026 75.8714 213.241 75.8714Z" fill="#A0616A"/>
<path d="M242.119 62.476C242.119 62.476 227.915 45.4781 222.233 46.8946C216.551 48.3111 220.103 50.4358 220.103 50.4358L205.898 34.8543C205.898 34.8543 194.535 30.6048 183.882 44.0616C183.882 44.0616 177.49 32.7296 183.882 26.3553C190.274 19.9811 192.404 20.6894 193.825 17.1481C195.245 13.6069 205.188 10.7739 205.188 10.7739C205.188 10.7739 204.618 5.67671 207.744 8.22529C210.87 10.7739 218.677 10.7739 218.677 10.7739C218.677 10.7739 218.721 7.94087 221.898 10.7739C225.074 13.6069 228.625 12.1904 228.625 12.1904C228.625 12.1904 228.625 17.0923 231.111 17.1202C233.597 17.1481 237.858 13.6069 238.568 16.4399C239.278 19.2729 244.25 20.6894 244.96 29.1883C245.67 37.6873 242.119 62.476 242.119 62.476Z" fill="#2F2E41"/>
<path d="M133.232 106.175L155.963 149.028L152.847 150.671L130.116 107.819C129.786 107.197 130.024 106.424 130.648 106.095L131.504 105.644C132.127 105.315 132.902 105.553 133.232 106.175Z" fill="#3F3D56"/>
<path d="M171.101 165.223C165.318 163.736 159.268 166.369 156.366 171.574C152.732 178.092 148.581 183.439 149.971 170.695C151.502 156.665 143.248 145.334 149.734 141.912C156.221 138.491 162.918 148.889 173.46 158.304C183.231 167.03 177.597 166.893 171.101 165.223Z" fill="#3F3D56"/>
<path d="M137.628 114.844C144.184 111.859 151.042 112.813 152.946 116.973C154.85 121.134 151.08 126.926 144.521 129.911C141.918 131.139 139.057 131.728 136.179 131.628L108.242 143.925L102.735 130.729L130.86 120.007C132.67 117.771 134.991 116.001 137.628 114.844Z" fill="#FFB6B6"/>
<path d="M25.0493 82.5155C19.3465 86.5143 17.7223 94.2318 21.3344 100.178C34.2181 121.387 62.2104 167.132 64.0273 167.231C66.3926 167.361 125.259 139.423 125.259 139.423L120.23 122.982L76.0461 135.554L43.7862 86.1192C39.6908 79.8434 31.1913 78.2088 25.0493 82.5155Z" fill="#E6E6E6"/>
<path d="M140.422 180.655L215.935 140.822L225.204 158.297C233.201 173.372 227.42 192.084 212.303 200.058L191.568 210.996C176.452 218.97 157.688 213.205 149.691 198.131L140.422 180.655Z" fill="#F9A826"/>
<path d="M204.398 207.431C197.843 210.417 190.985 209.465 189.08 205.304C187.175 201.144 190.945 195.352 197.503 192.366C200.106 191.137 202.966 190.548 205.845 190.648L233.78 178.346L239.289 191.542L211.165 202.268C209.356 204.503 207.035 206.274 204.398 207.431Z" fill="#A0616A"/>
<path d="M261.213 89.6491C268.137 88.8314 274.511 93.4975 275.801 100.33C280.401 124.699 290.171 177.395 288.884 178.678C287.209 180.349 224.674 198.723 224.674 198.723L217.416 183.133L258.734 163.088L249.672 104.803C248.522 97.404 253.757 90.5298 261.213 89.6491Z" fill="#E6E6E6"/>
</g>
<defs>
<clipPath id="clip0_3_34">
<rect width="289" height="248" fill="white"/>
</clipPath>
</defs>
</svg>
