<svg width="207" height="251" viewBox="0 0 207 251" fill="none" xmlns="http://www.w3.org/2000/svg">
<g clip-path="url(#clip0_10_6715)">
<path d="M39.6248 98.4385C39.3854 98.0641 37.8771 95.7048 36.7595 95.9438C34.6412 96.3968 35.7903 105.786 32.7107 106.722C32.0348 106.928 31.0835 106.748 28.9587 107.316C28.1135 107.542 27.6753 107.728 27.5392 108.103C27.3461 108.634 27.93 109.08 28.7972 110.375C30.0976 112.316 29.6977 112.675 30.8413 114.066C31.6903 115.099 32.3565 115.444 32.2259 115.897C32.0411 116.538 30.5877 116.263 30.2386 116.998C29.8824 117.748 30.9166 119.045 31.811 119.838C33.4895 121.325 35.1623 121.469 36.6942 121.957C38.359 122.487 40.6358 123.671 42.9926 126.631L61.8277 152.133C60.3088 151.557 57.3492 150.374 53.312 148.352C49.9067 146.645 46.5309 144.702 43.2776 142.575C41.8748 141.659 40.6488 140.805 39.5475 140.011L39.6593 140.069L39.1212 138.121C38.9148 137.348 38.7796 136.715 39.0659 136.207C39.2239 135.935 39.522 135.654 39.8694 135.329C40.2677 134.957 40.72 134.536 41.1605 133.951C41.5689 133.425 41.6619 132.956 41.4579 132.563C41.3888 132.429 41.2978 132.334 41.2019 132.264C41.3115 132.091 41.4362 131.886 41.5472 131.64C41.7822 131.117 41.8398 130.669 41.8814 130.336C42.052 128.996 41.8351 128.207 41.2342 127.989C40.9802 127.898 40.7509 127.939 40.5589 128.03C40.5447 127.755 40.5081 127.431 40.4079 127.083C40.0856 125.964 39.637 125.397 39.0399 125.35C38.2056 125.284 37.7848 126.206 37.2985 127.272C37.0805 127.745 36.5085 129.007 36.2099 129.008C36.1729 129.007 36.0675 128.985 35.9741 128.964C35.7182 128.908 35.3324 128.825 34.73 128.808C34.3924 128.798 33.8825 128.783 33.5707 129.202C33.2928 129.603 33.4299 130.029 33.5561 130.37C33.5979 130.482 33.6479 130.616 33.698 130.778C33.8125 131.147 33.8316 131.346 33.8504 131.539C33.8747 131.79 33.9 132.051 34.0799 132.48C34.0951 132.514 34.1089 132.547 34.1231 132.579C33.9541 132.618 33.7769 132.699 33.6281 132.865C33.0679 133.474 33.5905 134.484 33.8393 134.886C34.2868 135.605 34.8537 135.95 35.3098 136.228C35.4248 136.298 35.5378 136.367 35.647 136.442C36.2127 136.827 36.682 137.411 37.058 138.162C36.6132 137.824 36.188 137.497 35.7888 137.19C34.3591 136.09 33.0149 135.017 31.7045 133.972C30.357 132.897 29.0375 131.845 27.6951 130.819L27.7797 130.45L27.4554 130.638C25.3386 129.028 23.1585 127.481 20.7107 126.014C20.6104 125.954 20.4917 125.883 20.3693 125.812L20.2528 125.39C20.0464 124.616 19.9111 123.984 20.1975 123.475C20.3555 123.203 20.6536 122.922 21.0009 122.597C21.3992 122.225 21.8515 121.804 22.2921 121.22C22.7005 120.693 22.7935 120.224 22.5894 119.831C22.5203 119.697 22.4294 119.602 22.3335 119.533C22.443 119.359 22.5678 119.154 22.6787 118.908C22.9138 118.385 22.9714 117.937 23.0129 117.604C23.1836 116.264 22.9667 115.475 22.3658 115.257C22.1118 115.166 21.8825 115.208 21.6905 115.298C21.6762 115.023 21.6397 114.7 21.5395 114.351C21.2171 113.232 20.7685 112.665 20.1715 112.618C19.3372 112.552 18.9164 113.474 18.4301 114.54C18.2121 115.014 17.6401 116.275 17.3414 116.276C17.3044 116.275 17.1991 116.253 17.1057 116.232C16.8498 116.177 16.4639 116.093 15.8616 116.076C15.524 116.066 15.0141 116.052 14.7022 116.47C14.4243 116.871 14.5614 117.297 14.6876 117.638C14.7295 117.75 14.7794 117.884 14.8296 118.046C14.944 118.415 14.9631 118.614 14.9819 118.807C15.0062 119.058 15.0315 119.319 15.2114 119.748C15.2266 119.783 15.2405 119.815 15.2547 119.847C15.0856 119.886 14.9085 119.967 14.7596 120.133C14.1994 120.743 14.722 121.752 14.9709 122.154C15.4183 122.873 15.9853 123.219 16.4413 123.497C16.5564 123.567 16.6694 123.635 16.7785 123.71C17.0983 123.928 17.386 124.212 17.6463 124.548C16.816 124.268 15.8573 124.037 14.7762 123.938C13.4842 123.82 12.1752 123.907 10.8704 124.192C10.8613 124.093 10.8523 123.997 10.8423 123.89C10.7314 122.689 10.6502 122.191 10.2366 121.724C10.0358 121.496 9.72825 121.246 8.84894 120.959C7.63017 120.562 6.58625 120.502 6.29452 120.493C4.8375 120.451 3.57906 120.416 2.4365 121.295C2.21849 121.461 1.55642 121.966 1.19301 122.856C1.00699 123.306 0.973444 123.672 0.946521 123.966C0.918115 124.273 0.900221 124.476 0.727772 124.761C0.618926 124.942 0.487977 125.09 0.38391 125.209C0.182937 125.447 -0.194817 125.884 0.121778 126.357C0.197859 126.472 0.294016 126.552 0.403304 126.607C0.34531 127.009 0.380673 127.424 0.579674 127.801C0.757974 128.139 1.0653 128.366 1.89327 128.771C3.16017 129.39 4.18119 129.692 4.38397 129.749C5.69809 130.121 6.35704 130.308 7.06341 130.281C8.56655 130.221 9.65852 129.755 10.3088 128.895C10.3416 128.853 10.3719 128.81 10.4009 128.767C10.8567 128.091 10.9061 127.384 10.9849 126.258C10.9998 126.04 10.9953 125.79 10.9763 125.47C12.2088 125.184 13.444 125.086 14.6597 125.197C17.2914 125.439 19.1614 126.56 20.0595 127.099C22.2963 128.439 24.313 129.855 26.2685 131.327L26.0328 131.464C25.3367 131.86 24.7597 132.151 24.1953 132.003C23.8924 131.919 23.5452 131.702 23.1427 131.449C22.682 131.158 22.1601 130.827 21.4828 130.549C20.8706 130.287 20.3933 130.316 20.0648 130.613C19.953 130.714 19.8843 130.826 19.841 130.937C19.6455 130.875 19.4157 130.806 19.1495 130.761C18.5841 130.666 18.1366 130.724 17.8038 130.768C16.4649 130.943 15.7567 131.353 15.6986 131.99C15.6744 132.259 15.773 132.47 15.909 132.633C15.6468 132.716 15.3434 132.834 15.0318 133.019C14.0315 133.615 13.5969 134.193 13.7031 134.782C13.8508 135.606 14.8493 135.78 16.0032 135.98C16.5163 136.071 17.881 136.304 17.9578 136.593C17.9668 136.629 17.9716 136.736 17.9754 136.832C17.9865 137.094 18.0033 137.488 18.1398 138.075C18.2162 138.404 18.3313 138.902 18.8149 139.097C19.2731 139.264 19.6506 139.024 19.948 138.815C20.0461 138.746 20.1626 138.664 20.3065 138.574C20.6345 138.37 20.8223 138.301 21.0041 138.234C21.2407 138.147 21.4864 138.056 21.8557 137.773C21.8855 137.75 21.9134 137.728 21.9406 137.706C22.0209 137.86 22.1447 138.011 22.3425 138.113C23.0743 138.5 23.9182 137.738 24.2436 137.395C24.8256 136.78 25.0157 136.144 25.1688 135.632C25.2075 135.503 25.2453 135.376 25.2896 135.252C25.5679 134.469 26.1487 133.744 27.0168 133.098L27.2044 132.959L27.3838 132.176C28.5621 133.085 29.7288 134.013 30.9168 134.961C32.2317 136.011 33.5821 137.087 35.0175 138.192C36.9209 139.657 39.2889 141.48 42.5868 143.635C45.8797 145.787 49.2972 147.754 52.7462 149.482C55.8178 151.021 58.2779 152.082 59.9659 152.763C55.0472 153.092 48.2432 153.482 45.1682 153.538C43.9725 153.559 42.7405 153.541 41.8624 152.713C41.0169 151.917 40.6013 150.466 39.3712 148.952C39.2275 148.775 38.8214 148.288 38.4619 148.374C38.1646 148.445 38.17 148.843 37.8935 148.914C37.5226 149.009 37.2119 148.369 36.4442 147.767C35.903 147.343 35.4097 147.153 34.9855 146.99C34.8576 146.941 32.9409 146.218 32.589 146.744C32.3246 147.139 33.1722 147.897 32.9205 148.232C32.6697 148.565 31.7409 147.928 30.3393 147.98C30.0865 147.99 28.4937 148.05 28.2885 148.667C27.8996 149.838 32.838 151.983 32.4089 153.765C32.3147 154.156 31.952 154.571 31.6179 155.778C31.485 156.259 31.4498 156.527 31.5942 156.702C31.7991 156.95 32.1866 156.792 33.0719 156.74C34.3996 156.662 34.4605 156.962 35.4732 156.802C36.2249 156.683 36.5862 156.455 36.7709 156.65C37.0322 156.926 36.4776 157.56 36.7377 157.943C37.0031 158.335 37.9377 158.201 38.5848 157.991C39.7991 157.596 40.3522 156.816 41.0334 156.205C41.7738 155.54 43.0118 154.764 45.1445 154.462L60.2412 152.873C61.1238 153.225 61.7741 153.465 62.1529 153.605C62.3546 153.679 62.4841 153.726 62.5378 153.75L62.7378 153.365L62.9618 153.669C62.8923 153.57 62.8161 153.461 62.7427 153.356L62.8278 153.192L63.406 152.935C63.3283 152.758 63.243 152.681 63.0123 152.581L64.1729 152.459C63.8219 152.488 63.3995 152.52 62.948 152.553C62.853 152.515 62.7362 152.472 62.5903 152.418C62.4203 152.355 62.1899 152.27 61.9138 152.166C57.3352 145.562 47.9176 131.571 44.4122 125.845C43.3153 124.053 42.2465 122.171 42.7174 120.104C43.1707 118.114 44.9965 116.194 46.1941 112.983C46.334 112.608 46.71 111.559 46.2596 111.091C45.8872 110.704 45.2892 111.067 44.9362 110.711C44.4626 110.233 45.1542 109.193 45.3816 107.495C45.542 106.298 45.39 105.382 45.2593 104.594C45.2199 104.357 44.609 100.81 43.4991 100.745C42.6653 100.697 42.2723 102.655 41.5423 102.571C40.8149 102.488 40.9521 100.515 39.6248 98.4385Z" fill="#F2F2F2"/>
<path d="M193.917 180.898L59.0917 162.258C54.5793 161.635 50.8549 158.401 49.603 154.019L18.6373 45.6103C17.588 41.9359 18.3713 38.1313 20.7865 35.1709C23.2016 32.2105 26.7698 30.6806 30.5801 30.9715L166.416 41.3812C171.331 41.7577 175.456 45.2193 176.682 49.9941L206.637 166.633C207.592 170.356 206.637 174.29 204.079 177.158C201.877 179.628 198.755 181.007 195.499 181.007C194.975 181.007 194.446 180.971 193.917 180.898Z" fill="#E6E6E6"/>
<path d="M159.823 156.646L117.059 150.733C115.628 150.536 114.447 149.51 114.05 148.12L104.228 113.735C103.896 112.57 104.144 111.363 104.91 110.424C105.676 109.485 106.808 109 108.016 109.092L151.1 112.394C152.659 112.513 153.968 113.611 154.357 115.126L163.857 152.121C164.16 153.302 163.857 154.55 163.046 155.459C162.348 156.243 161.357 156.68 160.325 156.68C160.158 156.68 159.991 156.669 159.823 156.646Z" fill="white"/>
<path d="M155.997 61.2484L76.6135 53.9393C74.6121 53.755 73.0546 52.835 73.1417 51.8885C73.2288 50.942 74.928 50.3222 76.9294 50.5065L156.313 57.8156C158.314 57.9999 159.871 58.9195 159.784 59.866C159.697 60.8124 157.998 61.4327 155.997 61.2484Z" fill="white"/>
<path d="M160.326 82.1189L80.9422 74.8097C78.9409 74.6255 77.3833 73.7054 77.4704 72.759C77.5575 71.8125 79.2568 71.1927 81.2581 71.3769L160.642 78.6861C162.643 78.8703 164.2 79.7899 164.113 80.7364C164.026 81.6829 162.327 82.3031 160.326 82.1189Z" fill="white"/>
<path d="M161.855 100.309L82.471 93.0001C80.4697 92.8158 78.9121 91.8958 78.9992 90.9493C79.0863 90.0029 80.7856 89.3831 82.7869 89.5673L162.17 96.8764C164.172 97.0607 165.729 97.9803 165.642 98.9268C165.554 99.8733 163.856 100.494 161.855 100.309Z" fill="white"/>
<path d="M114.022 91.5227C116.014 89.3513 118.749 88.6195 120.131 89.8881C121.512 91.1568 121.016 93.945 119.023 96.1169C118.238 96.9954 117.255 97.6733 116.155 98.0937L107.596 107.188L103.416 103.079L112.297 94.5505C112.622 93.4179 113.213 92.3797 114.022 91.5227Z" fill="#FFB6B6"/>
<path d="M65.2279 93.5464C65.2279 93.5464 70.2291 88.9707 76.2139 92.9657C82.1987 96.9607 96.1354 107.179 96.1354 107.179L105.901 95.0643L113.596 102.041C113.596 102.041 100.022 125.957 91.2526 120.693C82.4828 115.43 62.9049 100.404 63.7938 97.2954C64.6827 94.1865 65.2279 93.5464 65.2279 93.5464Z" fill="#F9A826"/>
<path d="M102.26 205.161L94.2918 220.013L87.729 212.069L95.2785 201.865L102.26 205.161Z" fill="#FFB6B6"/>
<path d="M97.1072 217.96L93.7357 236.182C93.7357 236.182 91.4728 242.501 87.8353 236.082C84.1979 229.663 77.6115 216.383 81.3981 213.949C85.1846 211.515 89.7578 209.548 89.7578 209.548L97.1072 217.96Z" fill="#2F2E41"/>
<path d="M106.962 221.335L115.369 236.471L104.861 237.733L100.237 225.54L106.962 221.335Z" fill="#FFB6B6"/>
<path d="M62.4065 84.268C62.4065 84.268 61.5658 92.677 60.3048 93.5179C59.0438 94.3588 75.0233 93.5179 75.0233 93.5179L70.3929 84.268H62.4065Z" fill="#FFB6B6"/>
<path d="M79.6372 96.0472L73.7556 91.4156H59.3747L49.7963 99.4042L55.8912 127.785L52.9488 141.66L90.359 142.921L83.6336 130.307C83.6336 130.307 91.62 121.898 89.098 116.432C86.5759 110.967 79.6372 96.0472 79.6372 96.0472Z" fill="#F9A826"/>
<path d="M86.5759 139.557L92.0403 142.5C92.0403 142.5 121.464 170.25 118.942 178.659C116.42 187.068 99.6064 211.034 99.6064 211.034L91.62 206.83L103.389 181.182L80.9013 158.688L92.973 179.973L110.115 224.909L100.027 229.113L73.9657 176.557C73.9657 176.557 52.5284 161.841 51.2674 152.591C50.0064 143.341 52.9488 141.66 52.9488 141.66L86.5759 139.557Z" fill="#2F2E41"/>
<path d="M115.159 232.898L129.03 245.932C129.03 245.932 133.234 251.397 125.667 250.977C118.101 250.556 102.969 248.875 102.969 244.25C102.969 239.625 103.81 234.579 103.81 234.579L115.159 232.898Z" fill="#2F2E41"/>
<path d="M66.6098 86.3702C71.9492 86.3702 76.2776 82.0406 76.2776 76.6998C76.2776 71.359 71.9492 67.0294 66.6098 67.0294C61.2704 67.0294 56.942 71.359 56.942 76.6998C56.942 82.0406 61.2704 86.3702 66.6098 86.3702Z" fill="#FFB6B6"/>
<path d="M108.55 115.286L100.582 139.557C100.37 140.204 99.8179 140.681 99.1472 140.798L83.91 143.449C82.5436 143.686 81.4144 142.386 81.8413 141.066L89.7984 116.465C90.0131 115.801 90.5844 115.315 91.2742 115.21L106.522 112.889C107.88 112.682 108.978 113.981 108.55 115.286Z" fill="white"/>
<path d="M83.5867 143.897C82.9381 143.897 82.3222 143.62 81.8856 143.117C81.3612 142.513 81.1952 141.697 81.4413 140.937L89.3984 116.335C89.664 115.514 90.3585 114.924 91.2111 114.795L106.459 112.474C107.241 112.354 108.015 112.644 108.526 113.249C109.038 113.854 109.196 114.665 108.949 115.417L100.981 139.688C100.72 140.485 100.045 141.068 99.2195 141.212L83.982 143.863C83.8496 143.886 83.7174 143.897 83.5867 143.897ZM106.803 113.288C106.731 113.288 106.658 113.294 106.585 113.305L91.3373 115.626C90.8014 115.707 90.3651 116.078 90.1984 116.594L82.262 141.131C82.1164 141.582 82.164 142.087 82.4437 142.469C82.7706 142.915 83.3026 143.126 83.8379 143.034L89.9524 141.971C96.0848 140.904 101.129 136.542 103.071 130.626L108.135 115.201C108.263 114.812 108.247 114.379 108.045 114.023C107.78 113.555 107.308 113.288 106.803 113.288Z" fill="#3F3D56"/>
<path d="M85.29 134.194C88.2346 134.303 90.5653 135.911 90.4956 137.786C90.4259 139.66 87.9825 141.091 85.0368 140.982C83.8595 140.954 82.706 140.645 81.6727 140.08L69.2019 139.46L69.6174 133.613L81.8672 134.844C82.9399 134.357 84.1135 134.134 85.29 134.194Z" fill="#FFB6B6"/>
<path d="M52.1081 98.3531C52.1081 98.3531 58.8336 99.194 59.6742 106.342C60.5149 113.489 61.7759 130.728 61.7759 130.728L77.3285 130.307L77.0091 140.691C77.0091 140.691 50.0064 145.864 48.3251 135.773C46.6437 125.682 45.3827 101.031 48.3251 99.6922C51.2675 98.3531 52.1081 98.3531 52.1081 98.3531Z" fill="#F9A826"/>
<path d="M139.442 30.8672L135.982 29.228C137.401 31.2087 138.624 34.3021 139.278 36.7636C140.387 34.4707 142.173 31.6651 143.942 29.9893L140.285 30.9301C142.538 19.8857 151.012 11.9569 160.716 11.9569L160.853 11.558C150.717 11.558 141.742 19.3769 139.442 30.8672Z" fill="#3F3D56"/>
<path d="M155.364 47.6953H133.506C132.579 47.6953 131.825 46.9408 131.825 46.0135C131.825 45.0862 132.579 44.3317 133.506 44.3317H155.364C156.291 44.3317 157.045 45.0862 157.045 46.0135C157.045 46.9408 156.291 47.6953 155.364 47.6953Z" fill="#F9A826"/>
<path d="M105.676 119.038L91.3427 120.247C90.9814 120.277 90.6626 120.008 90.6321 119.646C90.6017 119.285 90.8709 118.966 91.2323 118.936L105.566 117.727C105.927 117.697 106.246 117.966 106.276 118.328C106.307 118.689 106.038 119.008 105.676 119.038Z" fill="#3F3D56"/>
<path d="M104.415 123.243L90.0817 124.451C89.7204 124.481 89.4016 124.212 89.3711 123.851C89.3407 123.489 89.6099 123.17 89.9713 123.14L104.305 121.932C104.666 121.901 104.985 122.171 105.015 122.532C105.046 122.894 104.777 123.212 104.415 123.243Z" fill="#3F3D56"/>
<path d="M103.154 127.447L88.8206 128.655C88.4593 128.686 88.1405 128.417 88.11 128.055C88.0796 127.694 88.3488 127.375 88.7102 127.345L103.044 126.136C103.405 126.106 103.724 126.375 103.754 126.737C103.785 127.098 103.515 127.417 103.154 127.447Z" fill="#3F3D56"/>
<path d="M64.0224 80.1769L70.7859 72.4091L69.6584 69.1326L73.2892 72.5837L75.1633 72.0745C75.1633 72.0745 75.1471 65.4225 69.8368 65.1219C64.5266 64.8214 60.7174 65.381 60.7174 65.381C60.7174 65.381 53.1246 67.761 52.8277 69.585C52.5308 71.409 48.2772 73.8327 48.2772 73.8327C48.2772 73.8327 44.5865 76.5788 46.3118 81.1816C48.0371 85.7844 51.974 91.5297 49.2488 94.3305C46.5236 97.1313 42.6726 99.287 44.549 100.362C46.4254 101.437 49.8099 96.3968 52.8923 98.4121C55.9747 100.427 61.1832 108.521 66.0689 104.341C70.9546 100.161 71.858 95.3192 71.858 95.3192L64.0609 87.6116C64.0609 87.6116 59.337 79.5519 64.0224 80.1769Z" fill="#2F2E41"/>
<path d="M171.509 1.9433H150.262C149.727 1.9433 149.291 1.50733 149.291 0.971545C149.291 0.435756 149.727 0 150.262 0H171.509C172.045 0 172.48 0.43576 172.48 0.97155C172.48 1.50734 172.045 1.9433 171.509 1.9433Z" fill="#3F3D56"/>
<path d="M182.91 12.3101H138.861C138.325 12.3101 137.89 11.8742 137.89 11.3384C137.89 10.8026 138.325 10.3669 138.861 10.3669H182.91C183.446 10.3669 183.881 10.8026 183.881 11.3384C183.881 11.8742 183.446 12.3101 182.91 12.3101Z" fill="#3F3D56"/>
</g>
<defs>
<clipPath id="clip0_10_6715">
<rect width="207" height="251" fill="white"/>
</clipPath>
</defs>
</svg>
