<svg width="365" height="16" viewBox="0 0 365 16" fill="none" xmlns="http://www.w3.org/2000/svg">
<path d="M7.65814 3.48895C6.21056 3.48895 5 4.78947 5 6.34362C5 7.89833 6.21056 9.19884 7.65814 9.19884C9.1052 9.19884 10.3163 7.89833 10.3163 6.34362C10.3163 4.78947 9.1052 3.48895 7.65814 3.48895Z" fill="#F2A40F"/>
<path d="M45.6141 0.825867V8.20224H39.265V0.825867H24.9796V8.20224H18.6305V4.79777H14.3978V12.1741H16.8343H18.7369H28.6832V4.79777H35.0323V12.1741H49.3177V4.79777H56.1959V0.825867H45.6141Z" fill="#F2A40F"/>
<path d="M114.617 4.09242C113.074 2.17173 110.913 1.10953 108.689 1.10953C106.465 1.10953 104.289 2.17003 102.746 4.09129C102.626 4.24052 102.514 4.39315 102.405 4.54976C102.296 4.39372 102.183 4.24109 102.064 4.09242C100.521 2.17173 98.3407 1.10953 96.1169 1.10953C93.8926 1.10953 91.7117 2.17003 90.1689 4.09129C90.0488 4.24052 89.9356 4.39315 89.8261 4.54976C89.7165 4.39372 89.6033 4.24109 89.4843 4.09242C87.9409 2.17173 85.76 1.10953 83.5357 1.10953C81.3119 1.10953 79.1305 2.00888 77.5877 3.93014C76.5253 5.25335 75.8618 6.78366 75.574 8.4859H79.3665C79.9469 6.21625 81.2871 4.91574 83.3839 4.91574C86.114 4.91574 87.6679 7.72443 87.6679 10.9201V11.8904H91.6832L91.68 10.6631C91.68 7.46683 93.3868 4.94865 96.1175 4.94865C98.8476 4.94865 100.554 7.40328 100.554 10.5995L100.548 11.8904H104.257L104.261 10.6642C104.261 7.46796 105.968 4.94865 108.698 4.94865C111.429 4.94865 113.136 7.40328 113.136 10.5995L113.131 11.8904H116.768V10.9201C116.768 8.35256 116.092 5.92971 114.617 4.09242Z" fill="#00A885"/>
<path d="M68.6684 9.66687C67.2208 9.66687 66.0103 8.36693 66.0103 6.81222C66.0103 5.2575 67.2208 3.95699 68.6684 3.95699C70.116 3.95699 71.3265 5.2575 71.3265 6.81222C71.3265 8.36693 70.116 9.66687 68.6684 9.66687Z" fill="#00A885"/>
<path d="M175.41 9.12369C173.868 11.0432 171.71 12.1043 169.487 12.1043C167.265 12.1043 165.089 11.0444 163.548 9.12482C163.428 8.97616 163.317 8.82353 163.207 8.66692C163.098 8.82296 162.986 8.97503 162.867 9.12369C161.326 11.0432 159.147 12.1043 156.924 12.1043C154.702 12.1043 152.523 11.0444 150.981 9.12482C150.862 8.97616 150.748 8.82353 150.638 8.66692C150.529 8.82296 150.416 8.97503 150.297 9.12369C148.755 11.0432 146.576 12.1043 144.353 12.1043C142.131 12.1043 139.951 10.9893 138.41 9.06978C137.348 7.74771 136.685 6.00235 136.397 4.30011H140.187C140.767 6.56976 142.095 8.08475 144.189 8.08475C146.918 8.08475 148.459 5.49451 148.459 2.30168V0.895631H152.494L152.491 2.39757C152.491 5.58984 154.197 8.18802 156.925 8.18802C159.653 8.18802 161.358 5.61367 161.358 2.42084L161.351 0.895631H165.059L165.062 2.39644C165.062 5.58984 166.768 8.18802 169.496 8.18802C172.224 8.18802 173.929 5.61367 173.929 2.42084L173.926 0.895631H177.559V2.30168C177.559 4.86696 176.884 7.28867 175.41 9.12369Z" fill="#0055A4"/>
<path d="M129.46 9.27118C128.012 9.27118 126.802 7.97067 126.802 6.41652C126.802 4.86181 128.012 3.5613 129.46 3.5613C130.907 3.5613 132.118 4.86181 132.118 6.41652C132.118 7.97067 130.907 9.27118 129.46 9.27118Z" fill="#0055A4"/>
<path d="M190.221 9.35504C188.774 9.35504 187.563 8.05453 187.563 6.50039C187.563 4.94567 188.774 3.64516 190.221 3.64516C191.669 3.64516 192.879 4.94567 192.879 6.50039C192.879 8.05453 191.669 9.35504 190.221 9.35504Z" fill="#EE2939"/>
<path d="M210.884 13L204.027 5.62874L199.747 10.1618L197.129 7.35311L204.03 0.00851154L210.887 7.37921L217.76 0.00453949L224.642 7.38148L231.524 0L238.38 7.39566L235.752 10.1958L231.516 5.6259L224.643 12.9977L217.761 5.62136L210.884 13Z" fill="#EE2939"/>
<path d="M250.991 9.5108C249.543 9.5108 248.333 8.21029 248.333 6.65615C248.333 5.10144 249.543 3.80093 250.991 3.80093C252.438 3.80093 253.649 5.10144 253.649 6.65615C253.649 8.21029 252.438 9.5108 250.991 9.5108Z" fill="#DCA7AC"/>
<path d="M285.047 12.7646L278.531 5.78254L272.022 12.8094L264.341 8.74728H257.901V4.77539H265.213L271.288 7.97843L278.53 0.190688L285.776 7.94325L292.161 4.50927L299.193 7.08703L297.97 10.8354L292.418 8.80799L285.047 12.7646Z" fill="#DCA7AC"/>
<path d="M311.766 9.35474C310.318 9.35474 309.107 8.05423 309.107 6.50008C309.107 4.94537 310.318 3.64486 311.766 3.64486C313.213 3.64486 314.424 4.94537 314.424 6.50008C314.424 8.05423 313.213 9.35474 311.766 9.35474Z" fill="#828183"/>
<path d="M360 6.50995L358.549 8.97536C357.277 10.9091 355.452 12.0178 353.54 12.0178C351.629 12.0178 349.803 10.9091 348.531 8.97536L346.498 5.88523C345.922 5.00858 345.217 4.52571 344.516 4.52571C343.814 4.52571 343.109 5.00858 342.533 5.8858L340.218 9.40433C338.946 11.3375 337.12 12.4462 335.209 12.4462C333.298 12.4462 331.471 11.3375 330.2 9.40433L327.956 5.99304C327.379 5.11582 326.674 4.63238 325.973 4.63238C325.271 4.63238 324.566 5.11582 323.99 5.99304L321.53 9.78222L318.504 7.49215L320.963 3.70353C322.235 1.76978 324.061 0.660492 325.973 0.660492C327.884 0.660492 329.71 1.76978 330.982 3.70353L333.226 7.11425C333.803 7.9909 334.507 8.47434 335.209 8.47434C335.911 8.47434 336.615 7.9909 337.192 7.11425L339.506 3.59572C340.778 1.66254 342.604 0.553819 344.516 0.553819C346.427 0.553819 348.253 1.66254 349.525 3.59572L351.557 6.68585C352.134 7.5625 352.838 8.04594 353.54 8.04594C354.242 8.04594 354.946 7.5625 355.524 6.68585L356.974 4.22044L360 6.50995Z" fill="#828183"/>
</svg>
